<svg xmlns="http://www.w3.org/2000/svg" viewBox="0 0 64 64" width="64" height="64"><defs><linearGradient id="bg" x1="0%" y1="0%" x2="100%" y2="100%"><stop offset="0%" stop-color="#1E5FA8"/><stop offset="100%" stop-color="#0A2558"/></linearGradient><linearGradient id="sh" x1="0%" y1="0%" x2="100%" y2="100%"><stop offset="0%" stop-color="#38BDF8"/><stop offset="50%" stop-color="#1E88E5"/><stop offset="100%" stop-color="#0A2558"/></linearGradient></defs><rect width="64" height="64" rx="10" fill="url(#bg)"/><path d="M32 6 L54 15 V34 C54 46 44 55 32 58 C20 55 10 46 10 34 V15 Z" fill="url(#sh)" stroke="#38BDF8" stroke-width="1"/><path d="M32 12 L48 19 V34 C48 43 41 50 32 53 C23 50 16 43 16 34 V19 Z" fill="#0A2558" stroke="#60D4F8" stroke-width="0.8"/><rect x="23" y="26" width="18" height="3" rx="1.5" fill="#FFFFFF"/><rect x="30.5" y="26" width="3" height="14" rx="1.5" fill="#FFFFFF"/><circle cx="32" cy="36" r="2.5" fill="#0A2558"/><circle cx="32" cy="36" r="1.2" fill="#38BDF8"/></svg>
